HIERARCHY
ROOT Hips
{
  OFFSET -10.0563 7.73376 -472.55
  CHANNELS 6 Xposition Yposition Zposition Zrotation Xrotation Yrotation
  JOINT Spine
  {
    OFFSET 0 0 0
    CHANNELS 3 Zrotation Xrotation Yrotation
    JOINT Spine1
    {
      OFFSET 19 0 0
      CHANNELS 3 Zrotation Xrotation Yrotation
      JOINT Neck
      {
        OFFSET 22.5 0.6 0
        CHANNELS 3 Zrotation Xrotation Yrotation
        JOINT Head
        {
          OFFSET 14 0.0308777 0
          CHANNELS 3 Zrotation Xrotation Yrotation
          End Site
          {
            OFFSET 17 0 0
          }
        }
      }
      JOINT LeftShoulder
      {
        OFFSET 19.8 3.7 4.3
        CHANNELS 3 Zrotation Xrotation Yrotation
        JOINT LeftArm
        {
          OFFSET 8 0 0
          CHANNELS 3 Zrotation Xrotation Yrotation
          JOINT LeftForeArm
          {
            OFFSET 15.2 0 0
            CHANNELS 3 Zrotation Xrotation Yrotation
            JOINT LeftHand
            {
              OFFSET 17.8 0 0
              CHANNELS 3 Zrotation Xrotation Yrotation
              End Site
              {
                OFFSET 7.2 0 0
              }
            }
          }
        }
      }
      JOINT RightShoulder
      {
        OFFSET 19.8 3.7 -4.3
        CHANNELS 3 Zrotation Xrotation Yrotation
        JOINT RightArm
        {
          OFFSET 8 0 0.151654
          CHANNELS 3 Zrotation Xrotation Yrotation
          JOINT RightForeArm
          {
            OFFSET 15.2 0 0
            CHANNELS 3 Zrotation Xrotation Yrotation
            JOINT RightHand
            {
              OFFSET 17.8 0 0
              CHANNELS 3 Zrotation Xrotation Yrotation
              End Site
              {
                OFFSET 7.2 0 0
              }
            }
          }
        }
      }
    }
  }
  JOINT LeftUpLeg
  {
    OFFSET 5.98425 -7.666 4.78879
    CHANNELS 3 Zrotation Xrotation Yrotation
    JOINT LeftLeg
    {
      OFFSET 16 0 0
      CHANNELS 3 Zrotation Xrotation Yrotation
      JOINT LeftFoot
      {
        OFFSET 18 0 0
        CHANNELS 3 Zrotation Xrotation Yrotation
        End Site
        {
          OFFSET 0 -10.8 0
        }
      }
    }
  }
  JOINT RightUpLeg
  {
    OFFSET 5.98425 -7.66598 -4.78879
    CHANNELS 3 Zrotation Xrotation Yrotation
    JOINT RightLeg
    {
      OFFSET 16 0 0
      CHANNELS 3 Zrotation Xrotation Yrotation
      JOINT RightFoot
      {
        OFFSET 18 0 0
        CHANNELS 3 Zrotation Xrotation Yrotation
        End Site
        {
          OFFSET 0 -10.8 0
        }
      }
    }
  }
  JOINT Tail
  {
    OFFSET 6.83696 -0.722574 0
    CHANNELS 3 Zrotation Xrotation Yrotation
    JOINT Tail1
    {
      OFFSET 12 0 0
      CHANNELS 3 Zrotation Xrotation Yrotation
      End Site
      {
        OFFSET 12 0 0
      }
    }
  }
}
MOTION
Frames:	8
Frame Time:	0.0166667
0.887547 9.31586 48.2582 110.909 -69.0467 -158.063 -129.917 -1.76598 -8.06177 2.93433 0.91369 10.1232 8.85434 -4.28313 5.18503 -73.3437 81.8017 114.957 -109.298 -34.7953 -138.722 79.3321 -68.7818 -161.344 -75.8078 10.1608 1.0789 5.31046 0.508033 -13.7296 76.7896 -29.7913 49.5158 127.121 -72.6001 25.1912 -81.2833 -10.5736 -3.99266 4.93133 0.224923 -3.51569 -133.471 40.5509 -9.94088 164.476 39.5683 -1.35699 -22.5971 -1.58265 18.6463 -120.839 -33.2248 14.0329 159.453 -27.9468 -4.18303 -29.2593 -4.15915 -16.6061 64.7985 35.0974 11.6737 22.3588 -40.4141 14.479 
0.882675 9.29187 48.2502 111.074 -68.9977 -157.92 -129.853 -1.7951 -8.11335 2.93689 0.902181 10.2108 8.83609 -4.31302 5.22902 -73.3645 81.7794 114.782 -109.304 -34.8248 -138.676 79.3787 -68.8927 -161.34 -75.8731 10.0712 1.09727 5.44348 0.506282 -13.8291 76.7846 -29.8176 49.5573 127.142 -72.5259 25.1646 -81.3422 -10.5578 -4.02785 4.89592 0.230759 -3.57355 -133.595 40.7999 -9.71876 164.51 39.8212 -1.34753 -22.5421 -1.54331 18.8647 -120.865 -33.4059 14.0072 159.484 -27.9935 -4.18484 -29.1926 -4.17133 -16.6848 64.9577 35.0442 11.6331 22.3027 -40.3388 14.4315 
0.875459 9.26053 48.2405 111.335 -68.9025 -157.694 -129.675 -1.83694 -8.12027 2.82824 0.861325 10.241 8.84793 -4.35013 5.28689 -73.551 81.6658 114.901 -109.313 -34.8285 -138.696 79.1312 -68.98 -161.619 -76.0004 10.0569 1.12241 5.49728 0.511274 -13.9569 76.8057 -29.7957 49.5856 127.395 -72.5206 25.4069 -81.4217 -10.5041 -4.03056 4.9353 0.221668 -3.54832 -133.564 40.6729 -9.7486 164.51 39.7779 -1.35124 -22.5009 -1.54321 18.7578 -120.893 -33.451 13.9882 159.537 -27.9283 -4.17584 -29.0933 -4.18394 -16.6914 65.1775 34.9826 11.6185 22.2571 -40.2515 14.3558 
0.867644 9.24015 48.2414 111.449 -68.8685 -157.571 -129.563 -1.84814 -8.07698 2.70577 0.833731 10.1819 8.86503 -4.38154 5.33167 -74.0423 81.4582 115.404 -109.326 -34.8496 -138.689 78.8244 -69.0669 -161.944 -76.0468 10.1373 1.13197 5.44466 0.51665 -13.9765 76.8257 -29.7623 49.5838 127.637 -72.5787 25.6349 -81.4477 -10.5064 -4.02175 4.93485 0.219446 -3.50868 -134.082 40.6046 -9.47024 164.576 39.2433 -1.35049 -22.0422 -1.46414 18.8159 -121.062 -33.6033 13.8443 159.639 -28.1438 -4.17615 -28.9043 -4.2083 -16.8467 65.3071 34.8912 11.6073 22.2484 -40.1701 14.3236 
0.870559 9.21941 48.232 111.628 -68.8878 -157.371 -129.481 -1.82851 -8.0379 2.6581 0.846533 10.1114 8.84296 -4.47128 5.41195 -73.8031 81.3612 115.134 -109.375 -34.9194 -138.683 78.6314 -69.1112 -162.058 -76.0739 10.1189 1.13449 5.44609 0.524912 -14.0497 76.804 -29.819 49.6323 127.917 -72.7202 25.9069 -81.4523 -10.5459 -4.02509 4.88234 0.22615 -3.47829 -134.452 40.746 -9.20642 164.655 39.0408 -1.34136 -21.7534 -1.39891 18.9787 -121.2 -33.5879 13.7706 159.691 -28.1263 -4.1633 -28.7536 -4.22484 -16.8716 65.4363 34.7109 11.6794 22.0879 -40.0683 14.1427 
0.891817 9.19233 48.207 111.992 -68.8931 -157.032 -129.251 -1.84544 -8.05239 2.47192 0.835963 10.1285 8.84922 -4.55974 5.44565 -73.2654 81.3326 114.678 -109.39 -34.9175 -138.727 78.2383 -69.0581 -162.28 -76.1544 10.072 1.14538 5.48307 0.508023 -13.9887 76.8041 -29.8099 49.6121 128.34 -72.6437 26.3477 -81.5467 -10.4806 -4.07917 4.85934 0.22795 -3.40498 -134.43 41.0449 -9.04284 164.754 39.4604 -1.32818 -21.7486 -1.35984 19.2225 -121.327 -33.2572 13.8648 159.729 -27.4274 -4.10678 -28.5301 -4.25285 -16.6415 65.5468 34.6234 11.7957 22.0182 -40.0327 14.0578 
0.885855 9.17155 48.1974 112.225 -68.8944 -156.824 -129.081 -1.87797 -8.06501 2.30115 0.810263 10.1123 8.8496 -4.59569 5.46539 -73.1522 81.2438 114.803 -109.38 -34.873 -138.792 77.8436 -68.9256 -162.506 -76.2414 10.0317 1.1457 5.42546 0.529463 -14.175 76.8079 -29.7463 49.4808 128.538 -72.5003 26.4957 -81.6342 -10.4713 -4.09562 4.83471 0.228022 -3.32401 -134.096 41.2278 -9.16749 164.698 39.8837 -1.33134 -22.0141 -1.39496 19.2579 -121.16 -33.7494 13.8613 159.646 -28.1204 -4.17222 -28.6017 -4.24376 -16.8416 65.5664 34.643 11.8599 22.0961 -40.0551 14.1255 
0.880997 9.17897 48.1986 112.256 -68.9174 -156.801 -129.092 -1.87418 -8.03855 2.31534 0.814924 10.0255 8.76172 -4.58303 5.54747 -72.6942 81.3365 114.632 -109.393 -34.8577 -138.857 77.7196 -68.7518 -162.49 -76.2501 10.109 1.11331 5.2655 0.55282 -14.2953 76.8039 -29.7213 49.4088 128.38 -72.4948 26.2528 -81.6089 -10.5659 -4.03119 4.8373 0.226934 -3.33607 -134.213 41.0604 -9.20083 164.687 39.5263 -1.33438 -21.8228 -1.37981 19.1464 -121.222 -33.7141 13.8544 159.661 -28.1762 -4.16942 -28.5048 -4.25154 -16.8417 65.5239 34.6594 11.902 22.1207 -40.0789 14.1391 
